<?xml version="1.0" encoding="UTF-8"?>
<svg id="Capa_2" data-name="Capa 2" xmlns="http://www.w3.org/2000/svg" viewBox="0 0 48 48">
  <defs>
    <style>
      .cls-1, .cls-2 {
        fill: #77cccf;
      }

      .cls-3 {
        fill: #f3f3ff;
      }

      .cls-2 {
        fill-rule: evenodd;
      }
    </style>
  </defs>
  <g id="Capa_2-2" data-name="Capa 2">
    <g>
      <rect class="cls-3" width="48" height="48" rx="8" ry="8"/>
      <g>
        <path class="cls-1" d="M23.66,11.43c0-.56.46-1.02,1.02-1.02h6.79c.56,0,1.02.46,1.02,1.02v8.15c0,1.31-1.06,2.38-2.38,2.38h-.34v1.7c0,.82-.58,1.51-1.36,1.66v2.75c0,.19-.15.34-.34.34s-.34-.15-.34-.34v-2.75c-.77-.16-1.36-.84-1.36-1.66v-1.7h-.34c-1.31,0-2.38-1.06-2.38-2.38v-8.15Z"/>
        <path class="cls-2" d="M10.41,34.53c0,1.69,1.37,3.06,3.06,3.06h21.06c1.69,0,3.06-1.37,3.06-3.06v-5.1c0-1.69-1.37-3.06-3.06-3.06h-3.91c-.19,0-.34.15-.34.34s.15.34.34.34h3.91c1.31,0,2.38,1.06,2.38,2.38v2.04h-.56c-.59,0-1.17-.22-1.6-.62l-.67-.61c-1.02-.93-2.52-1.06-3.69-.33l-1.07.67c-.8.5-1.82.48-2.6-.05l-.99-.68c-1.04-.71-2.4-.71-3.44,0l-.99.68c-.78.53-1.8.55-2.6.05l-1.07-.67c-1.16-.73-2.67-.59-3.69.33l-.67.61c-.44.4-1.01.62-1.6.62h-.56v-2.04c0-1.31,1.06-2.38,2.38-2.38h12.4c.19,0,.34-.15.34-.34s-.15-.34-.34-.34h-12.4c-1.69,0-3.06,1.37-3.06,3.06v5.1ZM31.47,35.55c-.19,0-.34-.15-.34-.34s.15-.34.34-.34h.68c.19,0,.34.15.34.34s-.15.34-.34.34h-.68ZM26.38,35.21c0,.19.15.34.34.34h.68c.19,0,.34-.15.34-.34s-.15-.34-.34-.34h-.68c-.19,0-.34.15-.34.34ZM21.62,35.55c-.19,0-.34-.15-.34-.34s.15-.34.34-.34h.68c.19,0,.34.15.34.34s-.15.34-.34.34h-.68ZM15.51,35.21c0,.19.15.34.34.34h.68c.19,0,.34-.15.34-.34s-.15-.34-.34-.34h-.68c-.19,0-.34.15-.34.34ZM19.58,33.17c-.19,0-.34-.15-.34-.34s.15-.34.34-.34h.68c.19,0,.34.15.34.34s-.15.34-.34.34h-.68ZM23.66,32.83c0,.19.15.34.34.34h.68c.19,0,.34-.15.34-.34s-.15-.34-.34-.34h-.68c-.19,0-.34.15-.34.34ZM28.76,33.17c-.19,0-.34-.15-.34-.34s.15-.34.34-.34h.68c.19,0,.34.15.34.34s-.15.34-.34.34h-.68ZM33.17,32.83c0,.19.15.34.34.34h.68c.19,0,.34-.15.34-.34s-.15-.34-.34-.34h-.68c-.19,0-.34.15-.34.34Z"/>
      </g>
    </g>
  </g>
</svg>